<svg width="16" height="35" viewBox="0 0 16 35" fill="none" xmlns="http://www.w3.org/2000/svg">
<path fill-rule="evenodd" clip-rule="evenodd" d="M15.0085 0.390331C14.9068 0.266602 14.786 0.168436 14.653 0.101457C14.52 0.0344772 14.3774 0 14.2334 0C14.0894 0 13.9468 0.0344772 13.8138 0.101457C13.6808 0.168436 13.56 0.266602 13.4583 0.390331L0.321314 16.3337C0.219364 16.4571 0.138478 16.6038 0.0832891 16.7652C0.0281 16.9266 -0.00030899 17.0996 -0.00030899 17.2744C-0.00030899 17.4491 0.0281 17.6222 0.0832891 17.7836C0.138478 17.945 0.219364 18.0916 0.321314 18.215L13.4583 34.1584C13.6639 34.4079 13.9427 34.5481 14.2334 34.5481C14.5241 34.5481 14.8029 34.4079 15.0085 34.1584C15.214 33.909 15.3295 33.5706 15.3295 33.2178C15.3295 32.865 15.214 32.5266 15.0085 32.2771L2.64437 17.2744L15.0085 2.27165C15.1104 2.14823 15.1913 2.00162 15.2465 1.84021C15.3017 1.67879 15.3301 1.50575 15.3301 1.33099C15.3301 1.15623 15.3017 0.98319 15.2465 0.821776C15.1913 0.660362 15.1104 0.513748 15.0085 0.390331Z" fill="#D1C4C4"/>
</svg>
