<svg width="16" height="35" viewBox="0 0 16 35" fill="none" xmlns="http://www.w3.org/2000/svg">
<path fill-rule="evenodd" clip-rule="evenodd" d="M0.991545 0.390331C1.09324 0.266602 1.21404 0.168436 1.34705 0.101457C1.48005 0.0344772 1.62263 0 1.76663 0C1.91062 0 2.05321 0.0344772 2.18621 0.101457C2.31921 0.168436 2.44002 0.266602 2.54171 0.390331L15.6787 16.3337C15.7806 16.4571 15.8615 16.6038 15.9167 16.7652C15.9719 16.9266 16.0003 17.0996 16.0003 17.2744C16.0003 17.4491 15.9719 17.6222 15.9167 17.7836C15.8615 17.945 15.7806 18.0916 15.6787 18.215L2.54171 34.1584C2.33614 34.4079 2.05734 34.5481 1.76663 34.5481C1.47591 34.5481 1.19711 34.4079 0.991545 34.1584C0.78598 33.909 0.670495 33.5706 0.670495 33.2178C0.670495 32.865 0.78598 32.5266 0.991545 32.2771L13.3556 17.2744L0.991545 2.27165C0.889595 2.14823 0.808708 2.00162 0.753519 1.84021C0.698329 1.67879 0.669922 1.50575 0.669922 1.33099C0.669922 1.15623 0.698329 0.98319 0.753519 0.821776C0.808708 0.660362 0.889595 0.513748 0.991545 0.390331Z" fill="#D1C4C4"/>
</svg>
