<svg width="25" height="25" viewBox="0 0 25 25" fill="none" xmlns="http://www.w3.org/2000/svg">
<path d="M8.5 12.5L8.5 8.5C8.5 6.29086 10.2909 4.5 12.5 4.5V4.5C14.7091 4.5 16.5 6.29086 16.5 8.5L16.5 12.5" stroke="#222222" stroke-linecap="round"/>
<path d="M4.19435 13.1678C4.33942 11.4269 4.41196 10.5565 4.98605 10.0282C5.56013 9.5 6.4336 9.5 8.18053 9.5H16.8195C18.5664 9.5 19.4399 9.5 20.014 10.0282C20.588 10.5565 20.6606 11.4269 20.8057 13.1678L21.3195 19.3339C21.404 20.3474 21.4462 20.8542 21.1491 21.1771C20.852 21.5 20.3435 21.5 19.3264 21.5H5.6736C4.65655 21.5 4.14802 21.5 3.85092 21.1771C3.55382 20.8542 3.59605 20.3474 3.68051 19.3339L4.19435 13.1678Z" stroke="#222222"/>
</svg>
