<svg width="25" height="25" viewBox="0 0 25 25" fill="none" xmlns="http://www.w3.org/2000/svg">
<path d="M10.6434 7.12753C11.43 5.16653 11.8233 4.18604 12.4996 4.18604C13.1759 4.18604 13.5692 5.16653 14.3558 7.12753L14.3925 7.21885C14.8369 8.32672 15.0591 8.88065 15.5119 9.21734C15.9648 9.55403 16.5592 9.60727 17.7481 9.71374L17.9631 9.73299C19.9089 9.90726 20.8818 9.99439 21.09 10.6134C21.2981 11.2324 20.5756 11.8897 19.1306 13.2044L18.6483 13.6432C17.9168 14.3087 17.551 14.6414 17.3806 15.0776C17.3488 15.1589 17.3223 15.2423 17.3014 15.3271C17.1894 15.7817 17.2965 16.2645 17.5107 17.2299L17.5774 17.5305C17.971 19.3048 18.1679 20.192 17.8242 20.5746C17.6958 20.7176 17.5289 20.8206 17.3434 20.8712C16.8472 21.0066 16.1428 20.4325 14.7338 19.2844C13.8086 18.5305 13.3461 18.1536 12.8149 18.0688C12.606 18.0354 12.3932 18.0354 12.1843 18.0688C11.6532 18.1536 11.1906 18.5305 10.2654 19.2844C8.85645 20.4325 8.15197 21.0066 7.65577 20.8712C7.47035 20.8206 7.30344 20.7176 7.17502 20.5746C6.83134 20.192 7.02818 19.3048 7.42185 17.5305L7.48853 17.2299C7.70274 16.2645 7.80984 15.7817 7.69779 15.3271C7.67688 15.2423 7.65045 15.1589 7.61865 15.0776C7.44817 14.6414 7.08242 14.3087 6.35091 13.6432L5.86863 13.2044C4.42359 11.8897 3.70107 11.2324 3.90924 10.6134C4.11742 9.99439 5.09033 9.90726 7.03614 9.73299L7.25108 9.71374C8.44 9.60727 9.03445 9.55403 9.4873 9.21734C9.94015 8.88065 10.1624 8.32672 10.6067 7.21885L10.6434 7.12753Z" stroke="#222222"/>
</svg>
