<svg width="269" height="375" viewBox="0 0 269 375" fill="none" xmlns="http://www.w3.org/2000/svg">
<path d="M125.844 275.512C125.645 275.346 125.513 275.181 125.314 275.016C63.4434 219.593 114.997 180.407 127.166 170.982C129.349 169.296 131.664 167.708 134.011 166.253C151.835 155.209 159.011 145.123 161.756 137.715C164.534 130.209 162.715 125.546 162.715 125.546C212.88 137.484 197.767 187.88 197.305 187.88C196.775 189.467 196.048 190.989 195.254 192.51C186.458 209.209 162.814 222.602 150.976 229.712C144.031 233.911 138.112 239.665 134.243 246.808C124.686 264.401 136.723 271.775 146.081 274.784C146.908 275.049 147.669 275.28 148.429 275.479C230.373 274.123 255.571 239.732 263.706 217.41C267.31 207.523 268.005 196.842 266.285 186.458C254.579 116.419 219.229 89.9314 192.477 79.9447C194.262 74.1577 195.254 68.007 195.254 61.6247C195.254 50.2823 192.146 39.6673 186.789 30.5404C189.996 27.2997 191.981 22.8354 191.981 17.9413C191.981 8.05384 183.978 0.0512695 174.09 0.0512695C168.667 0.0512695 163.872 2.49833 160.599 6.30121C152.464 2.33299 143.337 0.0512695 133.681 0.0512695C124.025 0.0512695 114.898 2.33299 106.763 6.30121C103.489 2.49833 98.6943 0.0512695 93.2711 0.0512695C83.3836 0.0512695 75.3811 8.05384 75.3811 17.9413C75.3811 22.8685 77.3652 27.2997 80.5728 30.5404C75.2157 39.6673 72.1073 50.2823 72.1073 61.6247C72.1073 68.007 73.0663 74.1577 74.8851 79.9447C48.1327 89.9314 12.7825 116.419 1.07624 186.458C-0.643321 196.842 0.0511133 207.523 3.65558 217.41C11.9888 240.36 38.3775 276.008 125.844 275.512ZM155.704 45.4874C158.879 44.9913 161.69 45.8842 161.921 47.4715C162.186 49.0587 159.805 50.7783 156.597 51.2743C153.423 51.7704 150.612 50.8775 150.38 49.2902C150.149 47.7029 152.53 45.9834 155.704 45.4874ZM119.759 72.0413C123.099 68.2715 123.661 59.2438 123.76 58.0203C123.859 46.3471 130.473 44.7268 133.152 44.5614C133.152 44.5614 133.35 44.5284 133.681 44.5284C134.011 44.5284 134.21 44.5614 134.21 44.5614C136.855 44.7268 143.502 46.3471 143.601 58.0203C143.701 59.2438 144.263 68.2715 147.603 72.0413C148.099 72.6696 150.48 77.7291 147.206 80.3085V80.077H142.08H136.888C136.293 80.077 135.797 79.5809 135.797 78.9857V76.704V76.3072C138.178 75.4474 141.187 73.4963 141.485 73.3641C141.65 73.1987 141.749 73.0665 141.882 72.9342C144.495 66.0182 133.912 65.4938 133.912 65.4938C133.912 65.4938 122.98 65.8404 125.612 72.5704C125.844 72.835 126.042 73.0995 126.34 73.3641C126.637 73.4633 129.646 75.4474 132.027 76.3072V76.704V78.9857C132.027 79.5809 131.531 80.077 130.936 80.077H125.248H119.891C117.014 77.4315 119.263 72.6366 119.759 72.0413ZM111.657 45.4874C114.832 45.9834 117.213 47.7029 116.981 49.2902C116.717 50.8775 113.939 51.7704 110.764 51.2743C107.59 50.7783 105.209 49.0587 105.44 47.4715C105.672 45.8842 108.483 44.9913 111.657 45.4874ZM72.2726 192.113C73.397 182.259 79.1178 174.719 83.9458 169.99C87.6495 166.32 90.8241 164.335 90.8902 164.269C119.131 143.568 114.501 130.176 114.501 130.176C148.76 143.205 113.774 169.13 113.542 169.13C84.0781 188.839 85.3016 224.652 85.3016 224.884C74.1245 212.285 71.2475 201.24 72.2726 192.113Z" fill="#608535"/>
<path d="M15.0201 302.812C16.7508 303.492 18.1879 304.62 19.3314 306.196C20.4749 307.711 21.0467 309.488 21.0467 311.528V342.217C21.0467 344.287 20.4749 346.08 19.3314 347.594C18.1879 349.171 16.7508 350.299 15.0201 350.978C14.5874 351.133 14.1393 351.257 13.6757 351.349C13.243 351.411 12.764 351.473 12.2386 351.535C12.2077 351.566 12.0377 351.581 11.7287 351.581H8.43722V370.774C8.43722 371.021 8.3445 371.237 8.15907 371.423C7.97364 371.608 7.7573 371.701 7.51005 371.701H3.29144C3.0442 371.701 2.82786 371.608 2.64243 371.423C2.4879 371.175 2.41063 370.959 2.41063 370.774V343.329V343.283V303.137C2.41063 302.889 2.4879 302.689 2.64243 302.534C2.82786 302.349 3.01329 302.24 3.19873 302.21H11.9605H12.2386C12.4859 302.271 12.7176 302.318 12.934 302.349C13.1812 302.349 13.4285 302.379 13.6757 302.441L15.0201 302.812ZM15.0201 311.528C15.0201 310.631 14.6956 309.859 14.0466 309.21C13.3976 308.561 12.6249 308.236 11.7287 308.236H8.43722V345.555H11.7287C12.6249 345.555 13.3976 345.23 14.0466 344.581C14.6956 343.932 15.0201 343.144 15.0201 342.217V311.528ZM43.1133 305.64C43.4532 306.042 43.7314 306.474 43.9477 306.938C44.195 307.371 44.4268 307.85 44.6431 308.375C44.9831 309.457 45.153 310.492 45.153 311.481V362.336C45.153 363.325 44.9831 364.361 44.6431 365.442C44.4268 365.937 44.195 366.416 43.9477 366.879C43.7314 367.312 43.4532 367.729 43.1133 368.131C42.3406 369.182 41.2898 370.047 39.9609 370.727C38.632 371.345 37.2567 371.654 35.835 371.654C34.4752 371.654 33.0999 371.345 31.7091 370.727C30.3802 370.016 29.3139 369.151 28.5104 368.131C27.8923 367.328 27.3978 366.431 27.0269 365.442C26.6561 364.484 26.4706 363.449 26.4706 362.336V311.481C26.4706 310.399 26.6561 309.364 27.0269 308.375C27.3978 307.355 27.8923 306.444 28.5104 305.64C29.4066 304.558 30.4729 303.708 31.7091 303.09C33.0999 302.472 34.4752 302.163 35.835 302.163C37.2567 302.163 38.632 302.472 39.9609 303.09C41.1971 303.678 42.2479 304.527 43.1133 305.64ZM39.1265 311.481C39.1265 310.585 38.8019 309.812 38.1529 309.163C37.5039 308.514 36.7313 308.19 35.835 308.19C34.9078 308.19 34.1197 308.514 33.4707 309.163C32.8217 309.812 32.4972 310.585 32.4972 311.481V362.336C32.4972 363.233 32.8217 364.005 33.4707 364.654C34.1197 365.303 34.9078 365.628 35.835 365.628C36.7313 365.628 37.5039 365.303 38.1529 364.654C38.8019 364.005 39.1265 363.233 39.1265 362.336V311.481ZM54.8419 371.654V374.019C54.8419 374.328 54.7492 374.544 54.5638 374.668C54.3783 374.853 54.1775 374.946 53.9611 374.946H49.6962C49.4489 374.946 49.2326 374.853 49.0471 374.668C48.8617 374.482 48.769 374.266 48.769 374.019V366.462C48.769 366.308 48.8617 366.107 49.0471 365.86C49.2326 365.674 49.4489 365.581 49.6962 365.581H51.2723V303.183C51.2723 302.998 51.3496 302.781 51.5041 302.534C51.6587 302.379 51.8595 302.287 52.1068 302.256H61.1467C61.3939 302.287 61.6257 302.318 61.842 302.349C62.0893 302.349 62.3365 302.379 62.5838 302.441L63.9282 302.859C64.8244 303.198 65.628 303.647 66.3388 304.203C67.0496 304.759 67.6987 305.424 68.2859 306.196C69.4294 307.803 70.0011 309.596 70.0011 311.574V365.581H71.6237C71.9018 365.581 72.1181 365.674 72.2727 365.86C72.4581 366.045 72.5508 366.246 72.5508 366.462V374.019C72.5508 374.328 72.4581 374.544 72.2727 374.668C72.1181 374.853 71.9018 374.946 71.6237 374.946H67.4514C67.1424 374.946 66.926 374.853 66.8024 374.668C66.617 374.544 66.5242 374.328 66.5242 374.019V371.654H54.8419ZM63.9282 365.581V311.574C63.9282 310.678 63.6037 309.905 62.9546 309.256C62.3056 308.607 61.5175 308.282 60.5904 308.282H57.2989V365.581H63.9282ZM94.9883 370.913C94.9574 371.098 94.8492 371.283 94.6638 371.469C94.5092 371.623 94.3083 371.701 94.0611 371.701H89.8425C89.5952 371.701 89.3789 371.608 89.1935 371.423C89.0389 371.268 88.9617 371.067 88.9617 370.82V349.078H82.3324V370.82C82.3324 371.098 82.2397 371.299 82.0543 371.423C81.8689 371.608 81.6525 371.701 81.4053 371.701H77.1867C76.9394 371.701 76.7231 371.608 76.5376 371.423C76.3831 371.268 76.3059 371.067 76.3059 370.82V303.09C76.3059 302.843 76.3831 302.642 76.5376 302.488C76.7231 302.302 76.9394 302.21 77.1867 302.21H81.4053C81.6525 302.21 81.8689 302.302 82.0543 302.488C82.2397 302.642 82.3324 302.843 82.3324 303.09V343.051H88.9617V303.09C88.9617 302.503 89.2553 302.21 89.8425 302.21H94.0611C94.3083 302.21 94.5092 302.287 94.6638 302.441C94.8492 302.627 94.9574 302.812 94.9883 302.998V370.913ZM110.518 302.163C111.816 302.163 113.022 302.41 114.134 302.905C115.278 303.399 116.267 304.064 117.101 304.898C117.967 305.733 118.646 306.722 119.141 307.865C119.635 309.009 119.883 310.23 119.883 311.528V370.774C119.821 371.33 119.512 371.608 118.956 371.608H114.737C114.49 371.608 114.273 371.515 114.088 371.33C113.933 371.144 113.856 370.928 113.856 370.681V349.031H107.227V370.681C107.227 370.928 107.134 371.144 106.949 371.33C106.763 371.515 106.547 371.608 106.3 371.608H102.081C101.834 371.608 101.618 371.515 101.432 371.33C101.278 371.144 101.2 370.928 101.2 370.681V311.528C101.2 310.23 101.448 309.009 101.942 307.865C102.437 306.722 103.101 305.733 103.935 304.898C104.77 304.064 105.743 303.399 106.856 302.905C108 302.41 109.22 302.163 110.518 302.163ZM113.856 311.528C113.856 310.6 113.532 309.812 112.883 309.163C112.234 308.514 111.445 308.19 110.518 308.19C109.622 308.19 108.849 308.514 108.2 309.163C107.551 309.812 107.227 310.6 107.227 311.528V343.005H113.856V311.528ZM144.221 370.866C144.221 371.113 144.144 371.314 143.989 371.469C143.835 371.623 143.618 371.701 143.34 371.701H139.075C138.828 371.701 138.642 371.639 138.519 371.515C138.302 371.392 138.194 371.191 138.194 370.913V349.495H134.856C133.929 349.495 133.141 349.82 132.492 350.469C131.843 351.118 131.519 351.89 131.519 352.786V370.866C131.519 371.144 131.441 371.361 131.287 371.515C131.04 371.67 130.839 371.747 130.684 371.747H126.419C126.172 371.747 125.971 371.67 125.817 371.515C125.631 371.392 125.538 371.206 125.538 370.959V352.786C125.538 351.488 125.739 350.345 126.141 349.356C126.357 348.8 126.62 348.29 126.929 347.826C127.238 347.363 127.594 346.914 127.995 346.482C127.594 346.049 127.238 345.601 126.929 345.137C126.62 344.643 126.357 344.133 126.141 343.608C125.739 342.619 125.538 341.46 125.538 340.131V311.574C125.538 309.565 126.095 307.773 127.207 306.196C128.351 304.589 129.788 303.477 131.519 302.859L132.909 302.441C133.126 302.379 133.342 302.349 133.558 302.349C133.806 302.318 134.053 302.287 134.3 302.256H143.386C143.603 302.287 143.804 302.379 143.989 302.534C144.113 302.658 144.174 302.874 144.174 303.183L144.221 370.866ZM138.194 343.468V308.282H134.856C133.929 308.282 133.141 308.607 132.492 309.256C131.843 309.905 131.519 310.678 131.519 311.574V340.131C131.519 341.027 131.843 341.815 132.492 342.495C133.141 343.144 133.929 343.468 134.856 343.468H138.194ZM185.48 311.759C185.48 310.832 185.155 310.044 184.506 309.395C183.857 308.746 183.069 308.422 182.142 308.422C181.215 308.422 180.427 308.746 179.778 309.395C179.129 310.044 178.804 310.832 178.804 311.759V362.336C178.804 363.263 179.129 364.052 179.778 364.701C180.427 365.35 181.215 365.674 182.142 365.674C183.069 365.674 183.857 365.35 184.506 364.701C185.155 364.052 185.48 363.263 185.48 362.336V352.184C185.48 351.937 185.557 351.736 185.712 351.581C185.897 351.396 186.098 351.303 186.314 351.303H190.579C190.734 351.303 190.935 351.38 191.182 351.535C191.336 351.689 191.445 351.875 191.506 352.091V362.336C191.506 363.665 191.259 364.886 190.765 365.999C190.239 367.111 189.559 368.1 188.725 368.966C187.89 369.8 186.901 370.464 185.758 370.959C184.738 371.453 183.533 371.701 182.142 371.701C180.782 371.701 179.561 371.453 178.48 370.959C177.305 370.495 176.332 369.831 175.559 368.966C174.694 368.1 174.014 367.111 173.519 365.999C173.056 364.855 172.824 363.634 172.824 362.336V311.759C172.824 310.43 173.056 309.21 173.519 308.097C174.045 306.954 174.725 305.965 175.559 305.13C176.363 304.265 177.336 303.585 178.48 303.09C179.685 302.596 180.906 302.349 182.142 302.349C183.44 302.349 184.645 302.596 185.758 303.09C186.901 303.616 187.89 304.296 188.725 305.13C189.59 305.995 190.27 306.984 190.765 308.097C191.259 309.21 191.506 310.43 191.506 311.759V318.203C191.475 318.389 191.367 318.574 191.182 318.759C190.935 318.914 190.734 318.991 190.579 318.991H186.314C186.098 318.991 185.897 318.899 185.712 318.713C185.557 318.559 185.48 318.358 185.48 318.11V311.759ZM215.335 370.82C215.335 371.005 215.257 371.222 215.103 371.469C214.856 371.623 214.639 371.701 214.454 371.701H210.467C210.22 371.701 210.019 371.623 209.864 371.469C209.71 371.314 209.632 371.098 209.632 370.82V333.455L202.447 341.151V370.82C202.447 371.005 202.37 371.222 202.215 371.469C201.968 371.623 201.752 371.701 201.566 371.701H197.579C197.332 371.701 197.131 371.623 196.977 371.469C196.822 371.314 196.745 371.098 196.745 370.82V303.137C196.745 302.859 196.822 302.642 196.977 302.488C197.131 302.333 197.332 302.256 197.579 302.256H201.566C201.752 302.256 201.968 302.333 202.215 302.488C202.37 302.735 202.447 302.951 202.447 303.137V333.362L209.632 325.713V303.137C209.632 302.859 209.71 302.642 209.864 302.488C210.019 302.333 210.22 302.256 210.467 302.256H214.454C214.639 302.256 214.856 302.333 215.103 302.488C215.257 302.735 215.335 302.951 215.335 303.137V370.82ZM240.229 370.727C240.229 370.974 240.136 371.191 239.951 371.376C239.796 371.531 239.595 371.608 239.348 371.608H235.176C234.898 371.608 234.681 371.531 234.527 371.376C234.341 371.191 234.249 370.974 234.249 370.727V308.329H227.527V362.429C227.527 363.047 227.465 363.634 227.341 364.191C227.218 364.747 227.063 365.288 226.878 365.813C226.414 367.018 225.719 368.085 224.792 369.012C223.834 369.97 222.736 370.681 221.5 371.144L221.454 371.191C220.619 371.531 219.723 371.716 218.765 371.747H218.348C218.162 371.716 217.992 371.623 217.838 371.469C217.683 371.314 217.606 371.113 217.606 370.866V366.694C217.606 366.107 217.853 365.798 218.348 365.767C218.781 365.767 219.167 365.69 219.507 365.535C219.847 365.35 220.156 365.118 220.434 364.84C221.114 364.16 221.454 363.356 221.454 362.429V307.402V303.183C221.454 303.029 221.469 302.936 221.5 302.905L221.732 302.627V302.58C221.856 302.395 222.057 302.302 222.335 302.302H239.348C239.595 302.302 239.796 302.395 239.951 302.58C240.136 302.766 240.229 302.967 240.229 303.183V370.727ZM255.713 302.163C257.011 302.163 258.216 302.41 259.329 302.905C260.472 303.399 261.461 304.064 262.296 304.898C263.161 305.733 263.841 306.722 264.335 307.865C264.83 309.009 265.077 310.23 265.077 311.528V370.774C265.015 371.33 264.706 371.608 264.15 371.608H259.931C259.684 371.608 259.468 371.515 259.282 371.33C259.128 371.144 259.05 370.928 259.05 370.681V349.031H252.421V370.681C252.421 370.928 252.329 371.144 252.143 371.33C251.958 371.515 251.741 371.608 251.494 371.608H247.275C247.028 371.608 246.812 371.515 246.626 371.33C246.472 371.144 246.395 370.928 246.395 370.681V311.528C246.395 310.23 246.642 309.009 247.136 307.865C247.631 306.722 248.295 305.733 249.13 304.898C249.964 304.064 250.938 303.399 252.05 302.905C253.194 302.41 254.415 302.163 255.713 302.163ZM259.05 311.528C259.05 310.6 258.726 309.812 258.077 309.163C257.428 308.514 256.64 308.19 255.713 308.19C254.816 308.19 254.044 308.514 253.395 309.163C252.746 309.812 252.421 310.6 252.421 311.528V343.005H259.05V311.528Z" fill="#608535"/>
</svg>
