<svg width="187" height="193" viewBox="0 0 187 193" fill="none" xmlns="http://www.w3.org/2000/svg">
<path d="M87.945 192.996C87.8063 192.881 87.7138 192.765 87.5751 192.65C44.3254 153.908 80.363 126.515 88.8696 119.927C90.3952 118.748 92.0133 117.639 93.6546 116.622C106.114 108.901 111.13 101.851 113.049 96.6727C114.991 91.4254 113.719 88.1661 113.719 88.1661C148.786 96.5109 138.222 131.739 137.898 131.739C137.528 132.849 137.02 133.912 136.465 134.976C130.316 146.649 113.788 156.011 105.513 160.981C100.659 163.917 96.521 167.939 93.8164 172.932C87.1359 185.23 95.5501 190.384 102.092 192.488C102.67 192.673 103.201 192.835 103.733 192.973C161.014 192.026 178.628 167.985 184.315 152.382C186.835 145.47 187.32 138.004 186.118 130.745C177.935 81.7861 153.224 63.2703 134.523 56.2893C135.772 52.244 136.465 47.9445 136.465 43.4831C136.465 35.5544 134.292 28.1342 130.547 21.7542C132.79 19.4889 134.177 16.3682 134.177 12.9471C134.177 6.03544 128.583 0.441406 121.671 0.441406C117.88 0.441406 114.528 2.15198 112.24 4.8103C106.553 2.0364 100.173 0.441406 93.4234 0.441406C86.6736 0.441406 80.2936 2.0364 74.6071 4.8103C72.3187 2.15198 68.9668 0.441406 65.1758 0.441406C58.2642 0.441406 52.6702 6.03544 52.6702 12.9471C52.6702 16.3913 54.0571 19.4889 56.2994 21.7542C52.5546 28.1342 50.3817 35.5544 50.3817 43.4831C50.3817 47.9445 51.0521 52.244 52.3234 56.2893C33.6227 63.2703 8.91189 81.7861 0.728877 130.745C-0.473148 138.004 0.0122826 145.47 2.53191 152.382C8.3571 168.424 26.8036 193.343 87.945 192.996ZM108.819 32.2026C111.038 31.8558 113.003 32.48 113.164 33.5895C113.349 34.6991 111.685 35.9011 109.443 36.2479C107.224 36.5946 105.259 35.9705 105.097 34.8609C104.935 33.7513 106.599 32.5493 108.819 32.2026ZM83.6916 50.7646C86.0264 48.1294 86.4193 41.8188 86.4887 40.9635C86.558 32.8036 91.1812 31.6709 93.0536 31.5553C93.0536 31.5553 93.1923 31.5322 93.4234 31.5322C93.6546 31.5322 93.7933 31.5553 93.7933 31.5553C95.6426 31.6709 100.289 32.8036 100.358 40.9635C100.428 41.8188 100.82 48.1294 103.155 50.7646C103.502 51.2038 105.166 54.7405 102.878 56.5436V56.3818H99.2948H95.6657C95.2496 56.3818 94.9028 56.035 94.9028 55.6189V54.0239V53.7466C96.5672 53.1455 98.6707 51.7817 98.8788 51.6892C98.9943 51.5737 99.0637 51.4812 99.1562 51.3887C100.983 46.5543 93.5852 46.1877 93.5852 46.1877C93.5852 46.1877 85.9434 46.43 87.7832 51.1345C87.945 51.3194 88.0837 51.5043 88.2917 51.6892C88.4997 51.7586 90.6033 53.1455 92.2676 53.7466V54.0239V55.6189C92.2676 56.035 91.9209 56.3818 91.5048 56.3818H87.5289H83.7841C81.773 54.5325 83.3449 51.1807 83.6916 50.7646ZM78.0283 32.2026C80.2474 32.5493 81.9117 33.7513 81.7499 34.8609C81.565 35.9705 79.6233 36.5946 77.4041 36.2479C75.185 35.9011 73.5207 34.6991 73.6825 33.5895C73.8443 32.48 75.8092 31.8558 78.0283 32.2026ZM50.4973 134.698C51.2832 127.81 55.2823 122.539 58.6572 119.234C61.2462 116.668 63.4653 115.281 63.5115 115.235C83.2525 100.764 80.0162 91.4023 80.0162 91.4023C103.964 100.51 79.5077 118.633 79.3459 118.633C58.7497 132.41 59.6049 157.444 59.6049 157.606C51.7918 148.799 49.7807 141.078 50.4973 134.698Z" fill="#608535"/>
</svg>
