<svg width="13" height="12" viewBox="0 0 13 12" fill="none" xmlns="http://www.w3.org/2000/svg">
<path fill-rule="evenodd" clip-rule="evenodd" d="M6.5 12C3.18629 12 0.5 9.31371 0.5 6C0.5 2.68629 3.18629 0 6.5 0C9.81371 0 12.5 2.68629 12.5 6C12.5 9.31371 9.81371 12 6.5 12ZM6.50001 2.66667C6.13182 2.66667 5.83334 2.96514 5.83334 3.33333C5.83334 3.70152 6.13182 4 6.50001 4H6.50667C6.87486 4 7.17334 3.70152 7.17334 3.33333C7.17334 2.96514 6.87486 2.66667 6.50667 2.66667H6.50001ZM5.5 5.33333C5.13181 5.33333 4.83333 5.63181 4.83333 6C4.83333 6.36819 5.13181 6.66667 5.5 6.66667H5.83333V8.66667C5.83333 9.03486 6.13181 9.33333 6.5 9.33333H7.83333C8.20152 9.33333 8.5 9.03486 8.5 8.66667C8.5 8.29848 8.20152 8 7.83333 8H7.16667V6C7.16667 5.63181 6.86819 5.33333 6.5 5.33333H5.5Z" fill="#697A9B"/>
</svg>
