<svg width="32" height="32" viewBox="0 0 32 32" fill="none" xmlns="http://www.w3.org/2000/svg">
<rect width="32" height="32" rx="6" fill="white"/>
<path d="M23.258 9.04525C23.258 9.04525 24.8769 8.414 24.742 9.94704C24.697 10.5783 24.2923 12.7877 23.9775 15.1774L22.8983 22.2565C22.8983 22.2565 22.8084 23.2935 21.9989 23.4739C21.1895 23.6542 19.9753 22.8426 19.7505 22.6623C19.5706 22.527 16.3778 20.498 15.2536 19.506C14.9388 19.2355 14.579 18.6944 15.2985 18.0631L20.0203 13.5542C20.5599 13.0131 21.0995 11.7506 18.8511 13.2837L12.5555 17.5672C12.5555 17.5672 11.836 18.018 10.4869 17.6123L7.56393 16.7105C7.56393 16.7105 6.48467 16.0341 8.3284 15.3578C12.8253 13.2385 18.3565 11.0743 23.258 9.04525Z" fill="#2C3C18"/>
</svg>
