<svg width="32" height="32" viewBox="0 0 32 32" fill="none" xmlns="http://www.w3.org/2000/svg">
<rect width="32" height="32" rx="6" fill="white"/>
<path d="M7.66699 24.3332L8.84326 20.0574C8.12051 18.8031 7.74096 17.3805 7.74282 15.9328C7.73445 11.3711 11.439 7.6665 15.992 7.6665C18.2017 7.6665 20.2766 8.52322 21.8388 10.086C22.6089 10.8521 23.2192 11.7633 23.6346 12.767C24.0499 13.7706 24.2619 14.8467 24.2583 15.9328C24.2583 20.4858 20.5537 24.1904 16.0003 24.1904C14.6143 24.1904 13.2618 23.8458 12.052 23.1825L7.66699 24.3332ZM12.2455 21.6956L12.4976 21.8467C13.5557 22.4728 14.7625 22.8035 15.992 22.8043C19.7723 22.8043 22.8556 19.7217 22.8556 15.9408C22.8556 14.1096 22.1417 12.3795 20.8477 11.086C20.2114 10.4461 19.4547 9.93847 18.6214 9.59235C17.788 9.24621 16.8943 9.06844 15.992 9.06926C12.2032 9.06975 9.12096 12.1525 9.12096 15.9333C9.12096 17.2268 9.48235 18.4957 10.1712 19.5878L10.3307 19.8482L9.63351 22.3848L12.2455 21.6956Z" fill="#2C3C18"/>
<path fill-rule="evenodd" clip-rule="evenodd" d="M13.9338 12.4722C13.7826 12.1276 13.6147 12.1192 13.472 12.1192C13.3459 12.1108 13.211 12.1108 13.0682 12.1108C12.9343 12.1108 12.7073 12.1611 12.5143 12.3713C12.3208 12.581 11.792 13.0769 11.792 14.0931C11.792 15.1099 12.531 16.0926 12.632 16.2271C12.7324 16.3615 14.0598 18.5116 16.1603 19.3437C17.9072 20.0326 18.2603 19.8981 18.6383 19.8558C19.016 19.814 19.8565 19.3605 20.0328 18.8731C20.2007 18.3945 20.2007 17.9745 20.1504 17.8902C20.1002 17.8066 19.9569 17.7558 19.7556 17.6466C19.5453 17.5461 18.5374 17.0419 18.3444 16.9745C18.1509 16.9075 18.0165 16.874 17.8821 17.0754C17.7477 17.2856 17.3528 17.7475 17.2273 17.8819C17.1091 18.0163 16.9835 18.0331 16.7817 17.9321C16.5719 17.8316 15.9082 17.6131 15.1184 16.9075C14.5049 16.361 14.0933 15.681 13.9673 15.4796C13.8501 15.2694 13.9505 15.1601 14.0598 15.0591C14.1524 14.9671 14.2701 14.8159 14.371 14.6982C14.4714 14.5801 14.5049 14.488 14.5808 14.3536C14.6478 14.2192 14.6143 14.0931 14.564 13.9927C14.5134 13.9001 14.1189 12.8839 13.9338 12.4722Z" fill="#2C3C18"/>
</svg>
